<svg xmlns="http://www.w3.org/2000/svg" xmlns:xlink="http://www.w3.org/1999/xlink" width="48" height="48" viewBox="0 0 48 48"><defs><linearGradient id="b" x1="2344" x2="2344" y1="374.362" y2="422.362" gradientTransform="translate(-3805.892 1356.662)" gradientUnits="userSpaceOnUse" xlink:href="#a"/><linearGradient id="a"><stop offset="0" stop-color="#ff8619"/><stop offset="1" stop-color="#ffe900"/></linearGradient></defs><g fill-rule="evenodd" transform="translate(1485.806 -1731.024)"><path fill="url(#b)" d="M-1437.806 1755.024a24 24 0 0 1-24 24 24 24 0 0 1-24-24 24 24 0 0 1 24-24 24 24 0 0 1 24 24z"/><g fill="none" stroke="#fff" stroke-width="1.5" transform="translate(-385.431 1122.11)"><g transform="translate(-25.743 2.011)"><path stroke-linecap="round" stroke-linejoin="round" d="M-1049.783 620.28a1.202 1.202 0 0 0-.247-1.552 1.195 1.195 0 0 0-1.958.767 1.186 1.186 0 0 0 .087.624"/><path d="M-1047.05 625.197v-1.749c0-1.73-1.53-3.2-3.256-3.2h-.988c-1.725 0-3.256 1.47-3.256 3.2v1.75"/><path stroke-linecap="round" stroke-linejoin="round" d="M-1046.61 625.297h-8.38v1.6a.798.8 0 0 0 .798.8h6.784a.798.8 0 0 0 .798-.8z"/><path stroke-linecap="round" stroke-linejoin="round" stroke-width="1" d="M-1053.425 625.704v1.055c0 .518.336.938.75.938h3.75c.414 0 .75-.42.75-.938v-1.055"/><path stroke-linecap="round" stroke-linejoin="round" stroke-width="1" d="M-1049.8 625.704v1.29c0 .388-.224.703-.5.703h-1c-.276 0-.5-.315-.5-.703v-1.29"/><path stroke-linecap="round" stroke-linejoin="round" d="M-1046.875 628.249a.918.918 0 0 1 .069.47l-.05.44c-.034.295-.155.566-.419.719l-.143.084a.968.968 0 0 0-.387.417l-.816 1.702a2.307 2.307 0 0 1-2.087 1.29h-.183c-.896 0-1.71-.504-2.087-1.29l-.816-1.702a.964.964 0 0 0-.387-.417l-.144-.084c-.263-.153-.384-.424-.418-.72l-.05-.439a.962.962 0 0 1 .069-.47"/></g><path stroke-linecap="round" stroke-linejoin="round" d="M-1072.142 634.87a4.78 4.789 0 0 1-4.38 2.82 4.78 4.789 0 0 1-4.353-2.861"/><path stroke-linecap="round" stroke-linejoin="round" d="M-1072.216 635.025a.445.445 0 0 1 .56-.23l.298.12c.819.327 1.234 1.275.74 2.004a7.216 7.216 0 0 1-5.737 3.162 7.217 7.217 0 0 1-6.115-3.018c-.415-.582-.156-1.418.457-1.787l.657-.395c.222-.133.476-.044.593.188"/><path stroke-linejoin="round" d="M-1075 639.862v4.5h3v-6"/><path stroke-linecap="round" stroke-linejoin="round" stroke-width="1" d="M-1075 644.362v1M-1072 644.362v1"/><path stroke-width="1" d="M-1075 642.612h3"/><path stroke-linecap="round" stroke-linejoin="round" stroke-width="1" d="M-1073.5 644.362v1"/><path stroke-linecap="round" stroke-linejoin="round" d="M-1085.5 643.362c.014-2.384.01-5.804 1.45-6.38l.3-.12M-1067.5 643.362c-.014-2.384-.01-5.804-1.45-6.38l-.3-.12"/></g></g></svg>