<svg xmlns="http://www.w3.org/2000/svg" data-name="Layer 1" viewBox="0 0 512 512"><path fill="#787681" d="M57.5 149.5h67a0 0 0 0 1 0 0v295a15 15 0 0 1-15 15h-37a15 15 0 0 1-15-15v-295A0 0 0 0 1 57.5 149.5zM439.5 459.5h-37a15 15 0 0 1-15-15V139h67V444.5A15 15 0 0 1 439.5 459.5z"/><rect width="497" height="116" x="7.5" y="358.5" fill="#dadadc" rx="30"/><path fill="#aeadb3" d="M474.5,358.5h-45a29.99993,29.99993,0,0,1,30,30v56a29.99993,29.99993,0,0,1-30,30h45a29.99993,29.99993,0,0,0,30-30v-56A29.99993,29.99993,0,0,0,474.5,358.5Z"/><circle cx="67" cy="416.5" r="25" fill="#fff"/><path fill="#e1e1e3" d="M67,391.5a24.98062,24.98062,0,0,0-7.5,1.14624,25.0072,25.0072,0,0,1,0,47.70752A25.00223,25.00223,0,1,0,67,391.5Z"/><path fill="#fff" d="M470,409H122a7.5,7.5,0,0,1,0-15H470a7.5,7.5,0,0,1,0,15Z"/><circle cx="122" cy="431.5" r="7.5" fill="#e4222e"/><circle cx="152" cy="431.5" r="7.5" fill="#f69531"/><circle cx="182" cy="431.5" r="7.5" fill="#aece44"/><circle cx="470" cy="431.5" r="7.5" fill="#e4222e"/><rect width="497" height="116" x="7.5" y="37.5" fill="#dadadc" rx="30"/><path fill="#aeadb3" d="M474.5,37.5h-45a29.99993,29.99993,0,0,1,30,30v56a29.99993,29.99993,0,0,1-30,30h45a29.99993,29.99993,0,0,0,30-30v-56A29.99993,29.99993,0,0,0,474.5,37.5Z"/><circle cx="67" cy="95.5" r="25" fill="#fff"/><path fill="#e1e1e3" d="M67,70.5a24.98062,24.98062,0,0,0-7.5,1.14624,25.0072,25.0072,0,0,1,0,47.70752A25.00223,25.00223,0,1,0,67,70.5Z"/><path fill="#fff" d="M470,88H122a7.5,7.5,0,0,1,0-15H470a7.5,7.5,0,0,1,0,15Z"/><circle cx="122" cy="110.5" r="7.5" fill="#e4222e"/><circle cx="152" cy="110.5" r="7.5" fill="#f69531"/><circle cx="182" cy="110.5" r="7.5" fill="#aece44"/><circle cx="470" cy="110.5" r="7.5" fill="#e4222e"/><rect width="497" height="116" x="7.5" y="198" fill="#dadadc" rx="30"/><path fill="#aeadb3" d="M474.5,198h-45a29.99993,29.99993,0,0,1,30,30v56a29.99993,29.99993,0,0,1-30,30h45a29.99993,29.99993,0,0,0,30-30V228A29.99993,29.99993,0,0,0,474.5,198Z"/><circle cx="67" cy="256" r="25" fill="#fff"/><path fill="#e1e1e3" d="M67,231a24.98062,24.98062,0,0,0-7.5,1.14624,25.0072,25.0072,0,0,1,0,47.70752A25.00223,25.00223,0,1,0,67,231Z"/><path fill="#fff" d="M470,248.5H122a7.5,7.5,0,0,1,0-15H470a7.5,7.5,0,0,1,0,15Z"/><circle cx="122" cy="271" r="7.5" fill="#e4222e"/><circle cx="152" cy="271" r="7.5" fill="#f69531"/><circle cx="182" cy="271" r="7.5" fill="#aece44"/><circle cx="470" cy="271" r="7.5" fill="#e4222e"/></svg>