<svg width="35" height="33" viewBox="0 0 35 33" fill="none" xmlns="http://www.w3.org/2000/svg">
<path fill-rule="evenodd" clip-rule="evenodd" d="M16.0417 16.5C16.0417 17.2594 16.6946 17.875 17.5 17.875C18.3055 17.875 18.9584 17.2594 18.9584 16.5C18.9584 15.7406 18.3055 15.125 17.5 15.125C16.6946 15.125 16.0417 15.7406 16.0417 16.5Z" stroke="black"/>
<path fill-rule="evenodd" clip-rule="evenodd" d="M16.0417 8.25C16.0417 9.00939 16.6946 9.625 17.5 9.625C18.3055 9.625 18.9584 9.00939 18.9584 8.25C18.9584 7.49061 18.3055 6.875 17.5 6.875C16.6946 6.875 16.0417 7.49061 16.0417 8.25Z" stroke="black"/>
<path fill-rule="evenodd" clip-rule="evenodd" d="M16.0417 24.75C16.0417 25.5094 16.6946 26.125 17.5 26.125C18.3055 26.125 18.9584 25.5094 18.9584 24.75C18.9584 23.9906 18.3055 23.375 17.5 23.375C16.6946 23.375 16.0417 23.9906 16.0417 24.75Z" stroke="black"/>
</svg>
