<svg width="58" height="44" viewBox="0 0 58 44" fill="none" xmlns="http://www.w3.org/2000/svg">
<path fill-rule="evenodd" clip-rule="evenodd" d="M28.4936 0.00519039C23.0434 0.00519039 17.6058 1.86351 13.1775 5.57924C10.5122 7.8157 8.45231 10.5369 7.02171 13.5167C6.82317 13.4978 6.62996 13.4547 6.42611 13.4547C2.86629 13.4547 0 16.321 0 19.8807V27.8228C0 31.3825 2.86629 34.2488 6.42611 34.2488C6.62998 34.2488 6.82318 34.2046 7.02171 34.1868C7.27785 34.7177 7.54287 35.2447 7.84156 35.7624C9.0092 37.8464 12.1287 36.0622 10.9241 33.9991C5.99199 25.4563 7.9021 14.631 15.4584 8.29047C23.0149 1.94974 33.9908 1.94974 41.5472 8.29047C49.1037 14.631 51.0138 25.4561 46.0816 33.9991L46.0284 34.0875L45.9929 34.176C45.9929 34.176 43.5975 39.4753 38.8937 39.4753L32.9394 39.422C32.3811 38.6066 31.4874 38.0387 30.4203 38.0387H26.5821C24.8611 38.0387 23.4767 39.4278 23.4767 41.1487C23.4767 42.2103 24.1503 43.0164 25.6917 43.0164L38.8936 43.0174C45.9523 43.0174 49.0052 36.0877 49.1441 35.767V35.7481C49.4401 35.2349 49.7007 34.7079 49.9551 34.1817C50.1625 34.2006 50.3646 34.2437 50.5782 34.2437C54.138 34.2437 57.0043 31.3774 57.0043 27.8177V19.8756C57.0043 16.3159 54.138 13.4496 50.5782 13.4496C50.3726 13.4496 50.1785 13.4836 49.9782 13.5116C48.5509 10.5316 46.4971 7.81069 43.8315 5.57408C39.4034 1.85835 33.9429 0 28.4925 0L28.4936 0.00519039ZM20.7486 11.2953C19.3652 11.205 18.1016 11.4975 16.9974 12.6603C14.053 15.7602 12.234 19.9793 12.234 24.4726C12.234 28.1788 13.4726 32.3317 15.5592 32.4833C18.5318 32.6995 23.2228 30.7474 28.5029 30.7474C34.0982 30.7474 39.0358 32.9377 41.964 32.4192C43.7386 32.1055 44.7763 27.8635 44.7763 24.4726C44.7763 19.9793 42.9528 15.7602 40.0083 12.6603C37.0638 9.56025 32.996 12.6603 28.5029 12.6603C25.6946 12.6603 23.0541 11.4467 20.7486 11.2953ZM20.0892 18.935C21.7307 18.9357 23.0612 20.2662 23.0617 21.9077C23.0612 23.5492 21.7307 24.8796 20.0892 24.8802C18.4477 24.8796 17.1172 23.5492 17.1166 21.9077C17.1172 20.2662 18.4477 18.9357 20.0892 18.935ZM36.9168 18.935C38.5584 18.9357 39.8888 20.2662 39.8894 21.9077C39.8888 23.5492 38.5584 24.8796 36.9168 24.8802C35.2753 24.8796 33.9449 23.5492 33.9443 21.9077C33.9449 20.2662 35.2753 18.9357 36.9168 18.935Z" fill="#667085"/>
</svg>
